<svg width="2676" height="463" viewBox="0 0 2676 463" fill="none" xmlns="http://www.w3.org/2000/svg">
<g clip-path="url(#clip0_1326_3359)">
<path opacity="0.5" fill-rule="evenodd" clip-rule="evenodd" d="M615.558 363.263L680.158 298.662L681.189 297.631L746.821 232L746.821 232L747.852 233.031L812.453 297.632L813.484 298.663L877.901 363.08L878.188 362.792L942.789 298.193L943.82 297.161L943.82 297.162L944.851 298.192L1009.45 362.793L1010.48 363.824L1075.08 428.425L1076.11 429.456L1140.71 494.056L1141.75 495.087L1206.35 559.688L1207.38 560.719L1271.98 625.319L1273.01 626.351L1337.61 690.951L1338.64 691.982L944.851 1085.77L943.82 1084.74L1008.42 1020.14L943.82 955.539L879.22 1020.14L943.82 1084.74L942.789 1085.77L812.74 955.723L747.852 1020.61L746.821 1019.58L811.421 954.978L746.821 890.378L682.221 954.979L746.821 1019.58L745.79 1020.61L352 626.822L353.031 625.79L354.062 626.821L418.663 691.421L483.264 626.821L418.663 562.22L354.062 626.821L353.031 625.79L417.632 561.189L418.663 560.158L548.895 429.926L549.926 428.895L614.526 364.294L615.558 363.263ZM419.694 692.453L484.295 757.053L548.896 692.453L484.295 627.852L419.694 692.453ZM485.326 758.084L549.926 822.684L614.526 758.083L549.927 693.484L485.326 758.084ZM550.957 823.715L615.558 888.316L680.158 823.715L615.558 759.115L550.957 823.715ZM616.589 889.347L681.189 953.948L745.79 889.347L681.189 824.746L616.589 889.347ZM550.03 690.952L549.744 691.238L485.326 626.821L549.926 562.221L614.343 626.638L550.03 690.951L550.214 691.134L550.213 691.135L550.03 690.952ZM548.895 561.189L484.295 625.789L419.694 561.189L484.294 496.589L548.895 561.189ZM485.325 495.558L549.926 560.158L614.527 495.558L549.926 430.957L485.325 495.558ZM550.957 561.189L615.374 625.607L615.662 625.319L679.975 561.006L615.558 496.589L550.957 561.189ZM812.452 824.747L876.869 889.164L812.557 953.477L748.14 889.06L812.452 824.747ZM746.821 759.115L811.238 823.532L746.925 887.845L682.508 823.428L746.821 759.115ZM681.189 693.483L745.607 757.901L681.294 822.214L616.876 757.796L681.189 693.483ZM615.558 627.853L679.975 692.27L615.662 756.583L551.245 692.165L615.558 627.853ZM942.501 823.533L878.084 759.115L813.771 823.428L878.188 887.845L942.501 823.533ZM876.869 757.901L812.452 693.484L748.14 757.796L812.557 822.213L876.869 757.901ZM811.238 692.27L746.82 627.852L682.508 692.164L746.926 756.582L811.238 692.27ZM745.607 626.638L681.19 562.221L616.877 626.534L681.294 690.951L745.607 626.638ZM616.589 495.558L681.006 559.975L745.607 495.374L681.189 430.957L616.589 495.558ZM680.158 429.926L615.558 494.527L550.957 429.926L615.558 365.326L680.158 429.926ZM616.589 364.294L681.189 428.895L745.79 364.294L681.189 299.694L616.589 364.294ZM682.221 429.926L746.638 494.343L746.925 494.056L811.238 429.743L746.821 365.326L682.221 429.926ZM943.716 693.484L1008.13 757.901L943.82 822.214L879.403 757.797L943.716 693.484ZM878.084 627.852L942.501 692.269L878.188 756.582L813.771 692.165L878.084 627.852ZM812.452 562.22L876.87 626.638L812.557 690.951L748.139 626.533L812.452 562.22ZM746.821 496.589L811.238 561.006L746.925 625.319L682.508 560.902L746.821 496.589ZM746.821 363.263L682.221 298.662L746.821 234.062L811.421 298.663L746.821 363.263ZM812.27 428.711L747.852 364.294L812.453 299.694L876.87 364.111L812.557 428.424L812.27 428.711ZM1073.76 692.269L1009.35 627.852L945.034 692.165L1009.45 756.582L1073.76 692.269ZM1008.13 626.637L943.716 562.22L879.402 626.534L943.819 690.951L1008.13 626.637ZM942.502 561.006L878.084 496.588L813.771 560.902L878.189 625.32L942.502 561.006ZM876.87 495.374L812.453 430.957L748.14 495.271L812.557 559.688L876.87 495.374ZM878.084 365.326L813.771 429.639L878.188 494.056L942.501 429.743L878.084 365.326ZM943.715 430.957L879.402 495.27L943.82 559.688L1008.13 495.375L943.715 430.957ZM1009.35 496.589L945.034 560.902L1009.45 625.319L1073.76 561.006L1009.35 496.589ZM1074.98 562.221L1010.67 626.534L1075.08 690.951L1139.4 626.638L1074.98 562.221ZM1140.9 627.565L1076.3 692.165L1140.71 756.583L1205.32 691.982L1140.9 627.565ZM1075.27 693.197L1010.67 757.797L1075.08 822.214L1139.68 757.614L1075.27 693.197ZM1009.63 758.828L945.034 823.429L1009.45 887.846L1074.05 823.245L1009.63 758.828ZM944.003 824.46L879.403 889.06L943.82 953.477L1008.42 888.877L944.003 824.46ZM878.372 890.091L813.771 954.692L878.188 1019.11L942.789 954.508L878.372 890.091ZM1009.45 1019.11L944.851 954.508L1009.45 889.908L1074.05 954.509L1009.45 1019.11ZM1075.08 953.478L1139.68 888.877L1075.08 824.277L1010.48 888.877L1075.08 953.478ZM1140.71 887.846L1076.11 823.245L1140.71 758.645L1205.31 823.245L1140.71 887.846ZM1206.35 822.214L1270.95 757.613L1206.35 693.013L1141.75 757.614L1206.35 822.214ZM943.82 428.424L879.22 363.824L943.82 299.224L1008.42 363.824L943.82 428.424ZM1009.45 494.056L944.852 429.455L1009.45 364.855L1074.05 429.456L1009.45 494.056ZM1075.08 559.687L1010.48 495.087L1075.08 430.487L1139.68 495.087L1075.08 559.687ZM1140.71 625.319L1076.11 560.718L1140.71 496.118L1205.31 560.719L1140.71 625.319ZM1206.35 690.951L1141.75 626.35L1206.35 561.75L1270.95 626.351L1206.35 690.951ZM1271.98 756.582L1207.38 691.982L1271.98 627.382L1336.58 691.982L1271.98 756.582Z" fill="#F1F6F1"/>
<g opacity="0.5">
<line x1="1906.52" y1="232.516" x2="1488.62" y2="650.416" stroke="#F1F6F1" stroke-width="1.45833"/>
<line x1="1976.52" y1="302.516" x2="1558.62" y2="720.416" stroke="#F1F6F1" stroke-width="1.45833"/>
<line x1="2045.52" y1="371.516" x2="1627.62" y2="789.416" stroke="#F1F6F1" stroke-width="1.45833"/>
<line x1="2115.52" y1="441.516" x2="1697.62" y2="859.416" stroke="#F1F6F1" stroke-width="1.45833"/>
<line x1="2323.48" y1="650.516" x2="1905.58" y2="232.615" stroke="#F1F6F1" stroke-width="1.45833"/>
<line x1="2253.48" y1="720.516" x2="1835.58" y2="302.615" stroke="#F1F6F1" stroke-width="1.45833"/>
<line x1="2184.48" y1="789.516" x2="1766.58" y2="371.615" stroke="#F1F6F1" stroke-width="1.45833"/>
<line x1="2114.48" y1="859.516" x2="1696.58" y2="441.615" stroke="#F1F6F1" stroke-width="1.45833"/>
</g>
</g>
<defs>
<clipPath id="clip0_1326_3359">
<rect width="2676" height="463" fill="white"/>
</clipPath>
</defs>
</svg>
