<svg width="127" height="135" viewBox="0 0 127 135" fill="none" xmlns="http://www.w3.org/2000/svg">
<path d="M80.9385 132.541H46.0615L50.607 114.521L53.0362 104.896H73.9638L76.393 114.521L80.9385 132.541Z" fill="#8A95F8"/>
<path d="M75.4059 110.608L80.9397 132.539H46.0605L51.55 110.786" stroke="black" stroke-width="3" stroke-miterlimit="10" stroke-linecap="round" stroke-linejoin="round"/>
<path d="M125 27.3892V105.571C125 108.117 122.934 110.184 120.388 110.184H6.6125C4.0664 110.184 2 108.117 2 105.571V27.3892C2 24.8431 4.0664 22.7767 6.6125 22.7767H120.388C122.934 22.7767 125 24.8431 125 27.3892Z" fill="white"/>
<path d="M120.387 22.7767H93.9424V110.184H120.387C122.933 110.184 125 108.117 125 105.571V27.3892C125 24.8431 122.933 22.7767 120.387 22.7767Z" fill="#F7D04D"/>
<path d="M119.311 52.0353L117.101 44.2709C116.913 43.6098 116.307 43.1516 115.621 43.1516H108.118C107.433 43.1516 106.827 43.6098 106.639 44.2709L104.428 52.0353C101.329 52.7948 98.4106 54.0156 95.7541 55.6269L88.6997 51.7001C88.1001 51.3649 87.3501 51.4695 86.864 51.9553L81.5596 57.2628C81.0737 57.7486 80.9695 58.4959 81.3016 59.0986L85.2311 66.1526C83.6198 68.8094 82.396 71.7276 81.6365 74.8241L73.8721 77.0381C73.211 77.2257 72.7559 77.8284 72.7559 78.5172V86.0202C72.7559 86.7059 73.211 87.3086 73.8721 87.4993L81.6365 89.7102C82.1571 91.8353 82.8987 93.8734 83.8323 95.8018H106.236C100.937 93.5936 97.2113 88.3683 97.2113 82.2687C97.2113 74.1722 103.773 67.6102 111.87 67.6102C117.623 67.6102 122.598 70.9219 125 75.7435V54.034C123.192 53.1915 121.289 52.5211 119.311 52.0353Z" fill="#FF7EB8"/>
<path d="M119.132 52.7636L118.709 52.6597L118.59 52.2407L116.379 44.4763L116.379 44.4759C116.283 44.1364 115.971 43.9016 115.621 43.9016H108.118C107.769 43.9016 107.457 44.1364 107.361 44.4756L107.361 44.4763L105.15 52.2407L105.03 52.66L104.607 52.7637C101.582 53.5049 98.7349 54.6961 96.143 56.2681L95.7703 56.4943L95.3893 56.2822L88.335 52.3554L88.3338 52.3548C88.0276 52.1836 87.6435 52.2366 87.3941 52.4858L82.0901 57.793L82.0899 57.7931C81.8419 58.0412 81.7867 58.4236 81.9578 58.7353C81.958 58.7358 81.9582 58.7362 81.9585 58.7366L85.8863 65.7876L86.0986 66.1686L85.8724 66.5415C84.3001 69.1341 83.1059 71.9815 82.3649 75.0028L82.2611 75.4259L81.8421 75.5454L74.0777 77.7594L74.0768 77.7596C73.739 77.8555 73.5059 78.163 73.5059 78.5172V86.0202C73.5059 86.3695 73.7376 86.6795 74.079 86.7784C74.0793 86.7785 74.0796 86.7785 74.0799 86.7786L81.8419 88.9889L82.2612 89.1083L82.3649 89.5317C82.8348 91.4498 83.4894 93.2957 84.3065 95.0518H103.269C99.1636 92.2855 96.4613 87.5948 96.4613 82.2687C96.4613 73.758 103.359 66.8602 111.87 66.8602C116.945 66.8602 121.443 69.3118 124.25 73.0934V54.5162C122.617 53.7866 120.905 53.1992 119.132 52.7636Z" fill="#EF8F35" stroke="black" stroke-width="1.5"/>
<path d="M2 37.5903H125" stroke="black" stroke-width="3.075" stroke-miterlimit="10" stroke-linecap="round" stroke-linejoin="round"/>
<path d="M2 94.6889V105.571C2 108.119 4.06517 110.184 6.6125 110.184H120.388C122.935 110.184 125 108.119 125 105.571V94.6889H2Z" fill="#8A95F8"/>
<path d="M124.83 94.689H11.8271" stroke="black" stroke-width="3" stroke-miterlimit="10" stroke-linecap="round" stroke-linejoin="round"/>
<path d="M40.1499 132.539H86.849" stroke="black" stroke-width="3" stroke-miterlimit="10" stroke-linecap="round" stroke-linejoin="round"/>
<path d="M125 37.5902V27.3901C125 24.8425 122.935 22.7776 120.388 22.7776H6.6125C4.06517 22.7776 2 24.8425 2 27.3901V105.571C2 108.118 4.06517 110.184 6.6125 110.184H120.388C122.935 110.184 125 108.118 125 105.571V46.0591" stroke="black" stroke-width="3" stroke-miterlimit="10" stroke-linecap="round" stroke-linejoin="round"/>
<path d="M125 39.0002V26.4628C125 24.5505 123.074 23.0002 120.699 23.0002H6.3013C3.92584 23.0002 2 24.5505 2 26.4628V39.0002H125Z" fill="black"/>
<path d="M12.0394 34.473C13.7179 34.473 15.0787 33.1122 15.0787 31.4336C15.0787 29.7551 13.7179 28.3943 12.0394 28.3943C10.3608 28.3943 9 29.7551 9 31.4336C9 33.1122 10.3608 34.473 12.0394 34.473Z" fill="#8A95F8"/>
<path d="M21.7425 34.473C23.4211 34.473 24.7818 33.1122 24.7818 31.4336C24.7818 29.7551 23.4211 28.3943 21.7425 28.3943C20.0639 28.3943 18.7031 29.7551 18.7031 31.4336C18.7031 33.1122 20.0639 34.473 21.7425 34.473Z" fill="#EF8F35"/>
<path d="M31.4451 34.473C33.1237 34.473 34.4845 33.1122 34.4845 31.4336C34.4845 29.7551 33.1237 28.3943 31.4451 28.3943C29.7665 28.3943 28.4058 29.7551 28.4058 31.4336C28.4058 33.1122 29.7665 34.473 31.4451 34.473Z" fill="white"/>
<path d="M117.691 34.8486H79.7285V28.019H117.692C118.461 28.019 119.086 28.6433 119.086 29.4131V33.4548C119.085 34.2246 118.461 34.8486 117.691 34.8486V34.8486Z" fill="white"/>
<path d="M79.9154 28.1056C78.4416 26.6318 76.0435 26.6318 74.5697 28.1056C73.0959 29.5794 73.0959 31.9775 74.5697 33.4513C75.6953 34.5769 77.3587 34.8398 78.7388 34.2465L79.9511 35.4588C80.4954 36.003 81.3784 36.003 81.9226 35.4588C82.4669 34.9145 82.4669 34.0315 81.9226 33.4873L80.7103 32.275C81.3039 30.8946 81.041 29.2312 79.9154 28.1056V28.1056ZM76.5412 30.0771C76.9279 29.6904 77.5572 29.6904 77.9439 30.0771C78.3306 30.4638 78.3306 31.0931 77.9439 31.4798C77.5572 31.8665 76.9279 31.8665 76.5412 31.4798C76.1545 31.0931 76.1545 30.4638 76.5412 30.0771Z" fill="#F7D04D" stroke="black" stroke-width="1.5"/>
<path d="M64.6403 78.1128H13.3671C12.5163 78.1128 11.8271 77.4234 11.8271 76.5728C11.8271 75.7223 12.5163 75.0329 13.3671 75.0329H64.6403C65.4911 75.0329 66.1802 75.7223 66.1802 76.5728C66.1802 77.4234 65.4911 78.1128 64.6403 78.1128Z" fill="#EF8F35" stroke="black" stroke-width="1.5"/>
<path d="M46.1903 65.2H13.3671C12.5163 65.2 11.8271 64.5102 11.8271 63.66C11.8271 62.8094 12.5163 62.1197 13.3671 62.1197H46.1903C47.0411 62.1197 47.7302 62.8094 47.7302 63.66C47.7302 64.5102 47.0411 65.2 46.1903 65.2Z" fill="#F7D04D" stroke="black" stroke-width="1.5"/>
<path d="M64.6403 84.2214H13.3671C12.5163 84.2214 11.8271 83.532 11.8271 82.6815C11.8271 81.8309 12.5163 81.1415 13.3671 81.1415H64.6403C65.4911 81.1415 66.1802 81.8309 66.1802 82.6815C66.1802 83.532 65.4911 84.2214 64.6403 84.2214Z" fill="#EF8F35" stroke="black" stroke-width="1.5"/>
<path d="M17.4105 56.0312C17.0173 56.0312 16.6233 55.8812 16.3235 55.5811L12.6228 51.88C12.0222 51.2798 12.0222 50.3062 12.6228 49.7057L16.3235 46.0049C16.9235 45.4047 17.8976 45.4047 18.4976 46.0049C19.0981 46.6055 19.0981 47.579 18.4976 48.1792L15.8841 50.793L18.4976 53.4064C19.0981 54.007 19.0981 54.9805 18.4976 55.5811C18.1977 55.8812 17.8038 56.0312 17.4105 56.0312Z" fill="#8A95F8" stroke="black" stroke-width="1.5"/>
<path d="M31.7899 56.0312C31.3966 56.0312 31.0027 55.8812 30.7029 55.5811C30.1023 54.9805 30.1023 54.007 30.7029 53.4064L33.3163 50.793L30.7029 48.1792C30.1023 47.579 30.1023 46.6055 30.7029 46.0049C31.3028 45.4047 32.2769 45.4047 32.8769 46.0049L36.5776 49.7057C37.1782 50.3062 37.1782 51.2798 36.5776 51.88L32.8769 55.5811C32.5771 55.8812 32.1832 56.0312 31.7899 56.0312Z" fill="#8A95F8" stroke="black" stroke-width="1.5"/>
<path d="M22.5094 56.0315C22.2533 56.0315 21.9938 55.9675 21.7551 55.8325C21.0156 55.415 20.7545 54.4771 21.1721 53.7379L25.3517 46.336C25.7692 45.5968 26.7071 45.3357 27.4464 45.7533C28.1859 46.1709 28.447 47.1085 28.0291 47.848L23.8495 55.2498C23.5669 55.7501 23.046 56.0315 22.5094 56.0315Z" fill="#8A95F8" stroke="black" stroke-width="1.5"/>
<path d="M96.4176 83.4714H101.338C101.433 83.4714 101.51 83.3942 101.51 83.2989V64.5826C101.51 64.4875 101.433 64.4101 101.338 64.4101H96.4176C96.3226 64.4101 96.2451 64.4876 96.2451 64.5826V83.2989C96.2451 83.3941 96.3224 83.4714 96.4176 83.4714Z" fill="#D99BF9" stroke="black" stroke-width="1.5"/>
<path d="M86.3585 83.4714H91.2785C91.3738 83.4714 91.451 83.3942 91.451 83.2989V71.7194C91.451 71.6241 91.3738 71.5469 91.2785 71.5469H86.3585C86.2634 71.5469 86.186 71.6243 86.186 71.7194V83.2989C86.186 83.3941 86.2634 83.4714 86.3585 83.4714Z" fill="#D99BF9" stroke="black" stroke-width="1.5"/>
<path d="M106.477 83.4714H111.397C111.493 83.4714 111.57 83.3942 111.57 83.2989V59.2094C111.57 59.1141 111.493 59.0369 111.397 59.0369H106.477C106.382 59.0369 106.305 59.1141 106.305 59.2094V83.2989C106.305 83.3942 106.382 83.4714 106.477 83.4714Z" fill="#D99BF9" stroke="black" stroke-width="1.5"/>
<path d="M79 47.2735C79 46.3243 79.7697 45.5546 80.7189 45.5546C81.6685 45.5546 82.4379 46.3243 82.4379 47.2735C82.4379 48.2228 81.6685 48.9924 80.7189 48.9924C79.7697 48.9924 79 48.2228 79 47.2735Z" fill="white" stroke="black" stroke-width="1.5"/>
<path d="M72 47.2735C72 46.3243 72.7697 45.5546 73.7189 45.5546C74.6685 45.5546 75.4379 46.3243 75.4379 47.2735C75.4379 48.2228 74.6685 48.9924 73.7189 48.9924C72.7697 48.9924 72 48.2228 72 47.2735Z" fill="white" stroke="black" stroke-width="1.5"/>
<path d="M65 47.2735C65 46.3243 65.7697 45.5546 66.7189 45.5546C67.6685 45.5546 68.4379 46.3243 68.4379 47.2735C68.4379 48.2228 67.6685 48.9924 66.7189 48.9924C65.7697 48.9924 65 48.2228 65 47.2735Z" fill="white" stroke="black" stroke-width="1.5"/>
<path d="M8.98454 118C6.78748 118 5 119.787 5 121.984C5 124.182 6.78748 125.969 8.98454 125.969C11.1819 125.969 12.9694 124.182 12.9694 121.984C12.9694 119.787 11.1819 118 8.98454 118V118ZM8.98454 123.181C8.32486 123.181 7.78815 122.644 7.78815 121.984C7.78815 121.325 8.32486 120.788 8.98454 120.788C9.64422 120.788 10.1812 121.325 10.1812 121.984C10.1812 122.644 9.64422 123.181 8.98454 123.181V123.181Z" fill="#F7D04D" stroke="black" stroke-width="1.5"/>
<path d="M23.461 120C22.6909 120 22.067 120.624 22.067 121.394C22.067 122.317 21.3167 123.067 20.3941 123.067C19.624 123.067 19 123.691 19 124.461C19 125.231 19.624 125.855 20.3941 125.855C21.3167 125.855 22.067 126.605 22.067 127.528C22.067 128.298 22.6909 128.922 23.461 128.922C24.2311 128.922 24.8551 128.298 24.8551 127.528C24.8551 126.605 25.6054 125.855 26.528 125.855C27.2981 125.855 27.9221 125.231 27.9221 124.461C27.9221 123.691 27.2981 123.067 26.528 123.067C25.6054 123.067 24.8551 122.317 24.8551 121.394C24.8551 120.624 24.2311 120 23.461 120Z" fill="black"/>
<path d="M93.461 1.00005C92.6909 1.00005 92.067 1.62404 92.067 2.39412C92.067 3.31672 91.3167 4.06701 90.3941 4.06701C89.624 4.06701 89 4.691 89 5.46108C89 6.23117 89.624 6.85516 90.3941 6.85516C91.3167 6.85516 92.067 7.60545 92.067 8.52805C92.067 9.29813 92.6909 9.92212 93.461 9.92212C94.2311 9.92212 94.8551 9.29813 94.8551 8.52805C94.8551 7.60545 95.6054 6.85516 96.528 6.85516C97.2981 6.85516 97.9221 6.23117 97.9221 5.46108C97.9221 4.691 97.2981 4.06701 96.528 4.06701C95.6054 4.06701 94.8551 3.31672 94.8551 2.39412C94.8551 1.62404 94.2311 1.00005 93.461 1.00005Z" fill="#F7D04D" stroke="black" stroke-width="1.5"/>
<path d="M97.461 119C96.6909 119 96.067 119.624 96.067 120.394C96.067 121.317 95.3167 122.067 94.3941 122.067C93.624 122.067 93 122.691 93 123.461C93 124.231 93.624 124.855 94.3941 124.855C95.3167 124.855 96.067 125.605 96.067 126.528C96.067 127.298 96.6909 127.922 97.461 127.922C98.2311 127.922 98.8551 127.298 98.8551 126.528C98.8551 125.605 99.6054 124.855 100.528 124.855C101.298 124.855 101.922 124.231 101.922 123.461C101.922 122.691 101.298 122.067 100.528 122.067C99.6054 122.067 98.8551 121.317 98.8551 120.394C98.8551 119.624 98.2311 119 97.461 119Z" fill="#1C1C1C"/>
<path d="M110.02 5.33159C109.25 5.33159 108.626 5.95558 108.626 6.72567C108.626 7.64826 107.876 8.39855 106.953 8.39855C106.183 8.39855 105.559 9.02254 105.559 9.79263C105.559 10.5627 106.183 11.1867 106.953 11.1867C107.876 11.1867 108.626 11.937 108.626 12.8596C108.626 13.6297 109.25 14.2537 110.02 14.2537C110.79 14.2537 111.414 13.6297 111.414 12.8596C111.414 11.937 112.164 11.1867 113.087 11.1867C113.857 11.1867 114.481 10.5627 114.481 9.79263C114.481 9.02254 113.857 8.39855 113.087 8.39855C112.164 8.39855 111.414 7.64826 111.414 6.72567C111.414 5.95558 110.79 5.33159 110.02 5.33159Z" fill="#1C1C1C"/>
</svg>
