<svg width="105" height="105" viewBox="0 0 105 105" fill="none" xmlns="http://www.w3.org/2000/svg">
<path d="M26.6597 55.2569C21.964 54.1061 16.3481 53.2542 9.61253 52.478C16.3481 51.702 21.964 50.8503 26.6596 49.6995C33.4239 48.0417 38.3807 45.7406 42.0607 42.0607C45.7406 38.3807 48.0417 33.4239 49.6995 26.6596C50.8502 21.9643 51.7019 16.3488 52.4779 9.61388C53.2538 16.3488 54.1055 21.9643 55.2563 26.6596C56.914 33.4239 59.2151 38.3807 62.8951 42.0607C66.575 45.7406 71.5318 48.0417 78.2961 49.6995C82.9916 50.8502 88.6073 51.702 95.3426 52.478C88.6081 53.2539 82.9928 54.1056 78.2977 55.2563C71.5334 56.914 66.5766 59.2151 62.8967 62.8951C59.2167 66.575 56.9156 71.5318 55.2579 78.2961C54.1071 82.9918 53.2553 88.6077 52.4793 95.3433C51.7031 88.6078 50.8511 82.9919 49.7001 78.2963C48.0421 71.5322 45.7409 66.5755 42.0608 62.8956C38.3808 59.2158 33.4239 56.9148 26.6597 55.2569Z" fill="#D1A4FF" stroke="#031926" stroke-width="2"/>
</svg>
