<svg width="242" height="242" viewBox="0 0 242 242" fill="none" xmlns="http://www.w3.org/2000/svg">
<mask id="path-1-outside-1_1185_2677" maskUnits="userSpaceOnUse" x="0" y="0" width="242" height="242" fill="black">
<rect fill="white" width="242" height="242"/>
<path fill-rule="evenodd" clip-rule="evenodd" d="M35.4902 203.798L112.896 126.418L11.8473 168.496L10.3962 165.011L111.513 122.905H2V119.13H111.496L10.2346 77.42L11.6723 73.9296L112.966 115.653L35.4902 38.2035L38.159 35.5338L115.556 112.904L73.4727 11.8865L76.9573 10.4348L119.1 111.596V2H122.875V111.488L164.56 10.2789L168.05 11.7165L126.345 112.974L203.811 35.5338L206.48 38.2035L129.058 115.599L230.139 73.508L231.59 76.9929L130.398 119.13H240V122.905H130.572L231.744 164.579L230.306 168.069L128.993 126.338L206.48 203.798L203.811 206.468L126.374 129.057L168.473 230.115L164.989 231.566L122.875 130.474V240H119.1V130.565L77.4213 231.757L73.9309 230.32L115.668 128.985L38.159 206.468L35.4902 203.798Z"/>
</mask>
<path fill-rule="evenodd" clip-rule="evenodd" d="M35.4902 203.798L112.896 126.418L11.8473 168.496L10.3962 165.011L111.513 122.905H2V119.13H111.496L10.2346 77.42L11.6723 73.9296L112.966 115.653L35.4902 38.2035L38.159 35.5338L115.556 112.904L73.4727 11.8865L76.9573 10.4348L119.1 111.596V2H122.875V111.488L164.56 10.2789L168.05 11.7165L126.345 112.974L203.811 35.5338L206.48 38.2035L129.058 115.599L230.139 73.508L231.59 76.9929L130.398 119.13H240V122.905H130.572L231.744 164.579L230.306 168.069L128.993 126.338L206.48 203.798L203.811 206.468L126.374 129.057L168.473 230.115L164.989 231.566L122.875 130.474V240H119.1V130.565L77.4213 231.757L73.9309 230.32L115.668 128.985L38.159 206.468L35.4902 203.798Z" fill="#60AEFE"/>
<path d="M112.896 126.418L114.31 127.833L121.459 120.686L112.127 124.572L112.896 126.418ZM35.4902 203.798L34.0762 202.384L32.6618 203.798L34.0758 205.212L35.4902 203.798ZM11.8473 168.496L10.001 169.265L10.7698 171.111L12.6161 170.342L11.8473 168.496ZM10.3962 165.011L9.62734 163.165L7.78102 163.934L8.54984 165.78L10.3962 165.011ZM111.513 122.905L112.282 124.752L121.519 120.905H111.513V122.905ZM2 122.905H0V124.905H2V122.905ZM2 119.13V117.13H0V119.13H2ZM111.496 119.13V121.13H121.602L112.258 117.281L111.496 119.13ZM10.2346 77.42L8.38533 76.6582L7.62361 78.5075L9.47287 79.2692L10.2346 77.42ZM11.6723 73.9296L12.434 72.0803L10.5848 71.3186L9.82305 73.1679L11.6723 73.9296ZM112.966 115.653L112.204 117.503L121.457 121.314L114.38 114.239L112.966 115.653ZM35.4902 38.2035L34.0758 36.7896L32.6618 38.204L34.0762 39.618L35.4902 38.2035ZM38.159 35.5338L39.573 34.1194L38.1585 32.7054L36.7446 34.1199L38.159 35.5338ZM115.556 112.904L114.142 114.319L121.287 121.462L117.402 112.135L115.556 112.904ZM73.4727 11.8865L72.7036 10.0403L70.8574 10.8094L71.6265 12.6556L73.4727 11.8865ZM76.9573 10.4348L78.8035 9.66572L78.0344 7.81951L76.1882 8.58862L76.9573 10.4348ZM119.1 111.596L117.254 112.365L121.1 121.598V111.596H119.1ZM119.1 2V0H117.1V2H119.1ZM122.875 2H124.875V0H122.875V2ZM122.875 111.488H120.875V121.595L124.724 112.249L122.875 111.488ZM164.56 10.2789L165.322 8.42959L163.472 7.66792L162.711 9.5172L164.56 10.2789ZM168.05 11.7165L169.9 12.4782L170.661 10.6289L168.812 9.8672L168.05 11.7165ZM126.345 112.974L124.496 112.212L120.688 121.457L127.759 114.388L126.345 112.974ZM203.811 35.5338L205.225 34.1199L203.811 32.7054L202.397 34.1194L203.811 35.5338ZM206.48 38.2035L207.894 39.618L209.308 38.204L207.894 36.7896L206.48 38.2035ZM129.058 115.599L127.644 114.185L120.495 121.331L129.827 117.445L129.058 115.599ZM230.139 73.508L231.985 72.7392L231.217 70.8929L229.37 71.6617L230.139 73.508ZM231.59 76.9929L232.359 78.8392L234.205 78.0704L233.437 76.2241L231.59 76.9929ZM130.398 119.13L129.629 117.284L120.392 121.13H130.398V119.13ZM240 119.13H242V117.13H240V119.13ZM240 122.905V124.905H242V122.905H240ZM130.572 122.905V120.905H120.465L129.81 124.754L130.572 122.905ZM231.744 164.579L233.593 165.341L234.355 163.491L232.505 162.73L231.744 164.579ZM230.306 168.069L229.544 169.919L231.394 170.68L232.155 168.831L230.306 168.069ZM128.993 126.338L129.755 124.488L120.502 120.677L127.579 127.752L128.993 126.338ZM206.48 203.798L207.894 205.212L209.308 203.798L207.894 202.384L206.48 203.798ZM203.811 206.468L202.397 207.883L203.811 209.296L205.225 207.882L203.811 206.468ZM126.374 129.057L127.788 127.642L120.642 120.499L124.527 129.826L126.374 129.057ZM168.473 230.115L169.242 231.961L171.088 231.192L170.319 229.346L168.473 230.115ZM164.989 231.566L163.142 232.335L163.911 234.182L165.758 233.413L164.989 231.566ZM122.875 130.474L124.721 129.705L120.875 120.472V130.474H122.875ZM122.875 240V242H124.875V240H122.875ZM119.1 240H117.1V242H119.1V240ZM119.1 130.565H121.1V120.457L117.251 129.803L119.1 130.565ZM77.4213 231.757L76.6596 233.607L78.5089 234.368L79.2706 232.519L77.4213 231.757ZM73.9309 230.32L72.0816 229.558L71.3199 231.407L73.1692 232.169L73.9309 230.32ZM115.668 128.985L117.517 129.747L121.325 120.502L114.254 127.571L115.668 128.985ZM38.159 206.468L36.7446 207.882L38.1585 209.296L39.573 207.883L38.159 206.468ZM111.482 125.004L34.0762 202.384L36.9042 205.213L114.31 127.833L111.482 125.004ZM12.6161 170.342L113.665 128.265L112.127 124.572L11.0785 166.65L12.6161 170.342ZM8.54984 165.78L10.001 169.265L13.6936 167.727L12.2425 164.242L8.54984 165.78ZM110.744 121.059L9.62734 163.165L11.165 166.858L112.282 124.752L110.744 121.059ZM2 124.905H111.513V120.905H2V124.905ZM0 119.13V122.905H4V119.13H0ZM111.496 117.13H2V121.13H111.496V117.13ZM9.47287 79.2692L110.734 120.98L112.258 117.281L10.9963 75.5707L9.47287 79.2692ZM9.82305 73.1679L8.38533 76.6582L12.0839 78.1817L13.5216 74.6913L9.82305 73.1679ZM113.728 113.804L12.434 72.0803L10.9106 75.7788L112.204 117.503L113.728 113.804ZM34.0762 39.618L111.552 117.068L114.38 114.239L36.9042 36.7891L34.0762 39.618ZM36.7446 34.1199L34.0758 36.7896L36.9047 39.6175L39.5735 36.9478L36.7446 34.1199ZM116.97 111.49L39.573 34.1194L36.745 36.9483L114.142 114.319L116.97 111.49ZM117.402 112.135L75.3189 11.1174L71.6265 12.6556L113.709 113.674L117.402 112.135ZM74.2418 13.7327L77.7264 12.281L76.1882 8.58862L72.7036 10.0403L74.2418 13.7327ZM75.1111 11.2039L117.254 112.365L120.946 110.827L78.8035 9.66572L75.1111 11.2039ZM117.1 2V111.596H121.1V2H117.1ZM122.875 0H119.1V4H122.875V0ZM124.875 111.488V2H120.875V111.488H124.875ZM162.711 9.5172L121.025 110.726L124.724 112.249L166.409 11.0405L162.711 9.5172ZM168.812 9.8672L165.322 8.42959L163.798 12.1282L167.289 13.5658L168.812 9.8672ZM128.194 113.736L169.9 12.4782L166.201 10.9548L124.496 112.212L128.194 113.736ZM202.397 34.1194L124.931 111.559L127.759 114.388L205.225 36.9483L202.397 34.1194ZM207.894 36.7896L205.225 34.1199L202.397 36.9478L205.065 39.6175L207.894 36.7896ZM130.472 117.014L207.894 39.618L205.066 36.7891L127.644 114.185L130.472 117.014ZM229.37 71.6617L128.29 113.753L129.827 117.445L230.908 75.3544L229.37 71.6617ZM233.437 76.2241L231.985 72.7392L228.293 74.2769L229.744 77.7617L233.437 76.2241ZM131.167 120.977L232.359 78.8392L230.821 75.1466L129.629 117.284L131.167 120.977ZM240 117.13H130.398V121.13H240V117.13ZM242 122.905V119.13H238V122.905H242ZM130.572 124.905H240V120.905H130.572V124.905ZM232.505 162.73L131.333 121.056L129.81 124.754L230.982 166.428L232.505 162.73ZM232.155 168.831L233.593 165.341L229.894 163.817L228.457 167.308L232.155 168.831ZM128.231 128.187L229.544 169.919L231.068 166.22L129.755 124.488L128.231 128.187ZM207.894 202.384L130.407 124.923L127.579 127.752L205.066 205.213L207.894 202.384ZM205.225 207.882L207.894 205.212L205.065 202.384L202.397 205.054L205.225 207.882ZM124.96 130.471L202.397 207.883L205.225 205.054L127.788 127.642L124.96 130.471ZM124.527 129.826L166.627 230.884L170.319 229.346L128.22 128.287L124.527 129.826ZM167.704 228.269L164.219 229.72L165.758 233.413L169.242 231.961L167.704 228.269ZM166.835 230.797L124.721 129.705L121.028 131.243L163.142 232.335L166.835 230.797ZM124.875 240V130.474H120.875V240H124.875ZM119.1 242H122.875V238H119.1V242ZM117.1 130.565V240H121.1V130.565H117.1ZM79.2706 232.519L120.949 131.327L117.251 129.803L75.572 230.996L79.2706 232.519ZM73.1692 232.169L76.6596 233.607L78.1829 229.908L74.6925 228.471L73.1692 232.169ZM113.819 128.223L72.0816 229.558L75.7801 231.082L117.517 129.747L113.819 128.223ZM39.573 207.883L117.082 130.399L114.254 127.571L36.745 205.054L39.573 207.883ZM34.0758 205.212L36.7446 207.882L39.5735 205.054L36.9047 202.384L34.0758 205.212Z" fill="#031926" mask="url(#path-1-outside-1_1185_2677)"/>
</svg>