<svg width="15" height="16" viewBox="0 0 15 16" fill="none" xmlns="http://www.w3.org/2000/svg">
<path d="M0.1 8C0.1 8.49706 0.502944 8.9 1 8.9C1.49706 8.9 1.9 8.49706 1.9 8H0.1ZM1 1L1.44653 0.218581C1.16797 0.0594082 0.825749 0.0605511 0.548266 0.221581C0.270783 0.382611 0.1 0.679177 0.1 1H1ZM13.25 8L13.6965 8.78142C13.9769 8.62118 14.15 8.32297 14.15 8C14.15 7.67703 13.9769 7.37882 13.6965 7.21858L13.25 8ZM0.553475 14.2186C0.121909 14.4652 -0.0280278 15.015 0.218581 15.4465C0.46519 15.8781 1.01496 16.028 1.44653 15.7814L0.553475 14.2186ZM1.9 8V1H0.1V8H1.9ZM0.553475 1.78142L12.8035 8.78142L13.6965 7.21858L1.44653 0.218581L0.553475 1.78142ZM12.8035 7.21858L6.67847 10.7186L7.57152 12.2814L13.6965 8.78142L12.8035 7.21858ZM6.67847 10.7186L3.61597 12.4686L4.50902 14.0314L7.57152 12.2814L6.67847 10.7186ZM3.61597 12.4686L0.553475 14.2186L1.44653 15.7814L4.50902 14.0314L3.61597 12.4686Z" fill="black"/>
</svg>
